
        <svg xmlns="http://www.w3.org/2000/svg" xmlns:xlink="http://www.w3.org/1999/xlink" version="1.1" width="3160.142121603371" 
        height="1053.9354509443804" viewBox="0 -58.37180332442869 3160.142121603371 1053.9354509443804">
			
			<g transform="scale(8.007106080168544) translate(10, 10)">
				<defs id="SvgjsDefs1048"><linearGradient id="SvgjsLinearGradient1055"><stop id="SvgjsStop1056" stop-color="#2d388a" offset="0"></stop><stop id="SvgjsStop1057" stop-color="#00aeef" offset="1"></stop></linearGradient><linearGradient id="SvgjsLinearGradient1058"><stop id="SvgjsStop1059" stop-color="#51504f" offset="0"></stop><stop id="SvgjsStop1060" stop-color="#939598" offset="0.5"></stop><stop id="SvgjsStop1061" stop-color="#51504f" offset="1"></stop></linearGradient></defs><g id="SvgjsG1049" featureKey="nYIUkx-0" transform="matrix(1.1722784719745372,0,0,1.1722784719745372,-6.447548365438011,-13.738989760772792)" fill="url(#SvgjsLinearGradient1055)"><title xmlns="http://www.w3.org/2000/svg">Artboard 10</title><path xmlns="http://www.w3.org/2000/svg" d="M20.59766,83.41064c1.09863.958,2.12793,1.7832,3.14453,2.521A44.17426,44.17426,0,0,0,49.99316,94.5a39.90027,39.90027,0,0,0,4.35449-.22119,43.80257,43.80257,0,0,0,17.126-5.29248,44.57384,44.57384,0,0,0,22.35059-46.752c-.13184-.79395-.30371-1.61279-.52441-2.502-.002-.01562-.00488-.03076-.00781-.04639-.20483-.8866-.42651-1.70587-.67383-2.49854v-.001l-.00049-.001-.00342-.01166A44.69135,44.69135,0,0,0,76.27466,14.084l-.00537-.004A44.14166,44.14166,0,0,0,49.99316,5.5h-.55859A44.25694,44.25694,0,0,0,34.46,8.291l-.01477.0047-.04089.01239c-.28027.06836-.55957.16064-.82812.25488a7.23724,7.23724,0,0,0-1.30566.60645c-.0166.00635-.0332.01367-.04883.02148l-.06433.03278a44.51609,44.51609,0,0,0-11.55969,74.187ZM89.80493,40.446a3.07486,3.07486,0,0,0,1.70874,2.12982c-.23389.73572-.49536,1.49866-.79687,2.29187a48.14564,48.14564,0,0,1-6.371,11.60779,4.23547,4.23547,0,0,0-4.402-.1098,69.83571,69.83571,0,0,0-12.71509-12.487c-1.0448-2.76062-2.15259-5.38385-3.29614-7.7981a.44045.44045,0,0,0-.02637-.06934c-1.18506-2.509-2.4519-4.8985-3.77295-7.16949a38.85887,38.85887,0,0,0,2.938,2.57574.54045.54045,0,0,0,.07227.06934,42.17534,42.17534,0,0,0,26.15137,8.96631C89.467,40.45313,89.63452,40.44794,89.80493,40.446Zm.92847-.64716A2.0705,2.0705,0,0,1,91.811,37.99139c.17676.60345.34375,1.2196.49756,1.88019a.43161.43161,0,0,0,.01074.061c.17041.68207.30249,1.31378.41736,1.9306a2.06426,2.06426,0,0,1-1.991-1.94238l.00037-.00238-.0011-.00476C90.7428,39.87488,90.7334,39.83813,90.7334,39.79883Zm-8.68945,23.7168a3.35669,3.35669,0,1,1,3.35645-3.35645A3.36067,3.36067,0,0,1,82.04395,63.51563ZM70.82056,88.19891a42.81552,42.81552,0,0,1-16.39612,5.0639,36.89766,36.89766,0,0,1-7.96887-7.30731,5.58327,5.58327,0,0,0,1.82666-4.143,5.68919,5.68919,0,0,0-.05762-.787A72.68112,72.68112,0,0,0,72.38843,69.64209C73.071,77.11786,72.53784,83.51691,70.82056,88.19891ZM38.05566,82.53613a5.02392,5.02392,0,0,1-.05859-.72363,4.643,4.643,0,0,1,9.17163-1.02386l.00024.00531.001.00159a4.24788,4.24788,0,0,1,.1123,1.017A4.60448,4.60448,0,0,1,45.45117,85.501a4.63508,4.63508,0,0,1-7.39551-2.96484Zm1.25781-51.96338a4.64287,4.64287,0,1,1,4.44531,5.9873A4.62335,4.62335,0,0,1,39.11621,31.918,4.58424,4.58424,0,0,1,39.31348,30.57275ZM55.293,26.66064a4.3,4.3,0,0,0,2.02075-.52045,89.69,89.69,0,0,1,5.66187,10.24115.45685.45685,0,0,0,.02637.0708c.937,1.97443,1.84912,4.09637,2.72314,6.31647a84.48615,84.48615,0,0,0-7.355-4.79108,79.60236,79.60236,0,0,0-9.1958-4.56024,5.40467,5.40467,0,0,0-1.05347-5.03973c1.3031-1.17334,2.61646-2.24908,3.91626-3.208A4.33044,4.33044,0,0,0,55.293,26.66064ZM40.496,36.50092a5.59349,5.59349,0,0,0,8.33215-2.14386,78.6469,78.6469,0,0,1,9.041,4.48621,83.97373,83.97373,0,0,1,8.53467,5.66132c.20068.53241.40076,1.074.59033,1.62042a98.94752,98.94752,0,0,1,5.28772,22.3653A71.53061,71.53061,0,0,1,47.981,80.056a5.58555,5.58555,0,0,0-7.98657-3.20886,98.27239,98.27239,0,0,1-7.66846-15.90375,6.88953,6.88953,0,0,0,.54956-12.4295A70.2772,70.2772,0,0,1,40.496,36.50092ZM73.20386,67.78979A100.4379,100.4379,0,0,0,67.9375,45.79248c-.01343-.03845-.02832-.07623-.04187-.11469a68.02546,68.02546,0,0,1,11.2312,11.26794,4.28743,4.28743,0,0,0-.39209,6.01447A59.16941,59.16941,0,0,1,73.20386,67.78979ZM55.293,25.66064a3.35693,3.35693,0,1,1,3.35645-3.35693A3.36077,3.36077,0,0,1,55.293,25.66064Zm0-7.71387a4.3262,4.3262,0,0,0-1.73291.36389,35.6965,35.6965,0,0,1-2.73486-7.29114,33.83927,33.83927,0,0,1-.81226-4.51917,43.13559,43.13559,0,0,1,24.68042,7.6933,51.94349,51.94349,0,0,0-15.93481,5.4989A4.33788,4.33788,0,0,0,55.293,17.94678Zm-5.43652-6.68164a36.296,36.296,0,0,0,2.14673,6.08875c-.4397-.4964-.87158-.96625-1.302-1.41541C46.32349,11.37714,41.974,8.7099,38.08167,8.15753A43.33763,43.33763,0,0,1,49.00586,6.51465,34.71411,34.71411,0,0,0,49.85645,11.26514Zm-17.209-1.16748L32.651,10.096c.0116-.00421.02356-.0083.03455-.01349.65356-.28876,1.3313-.55267,2.0033-.81708l.01135-.00323c.0127-.00342.03223-.00928.05273-.01611,4.28809-1.00244,9.69629,1.62158,15.22656,7.38428.73987.77264,1.49219,1.62372,2.27771,2.5578A4.27661,4.27661,0,0,0,51.468,24.3465c-1.3429.98969-2.69971,2.10083-4.04517,3.31323a5.59,5.59,0,0,0-8.89221,2.17908,61.67168,61.67168,0,0,0-8.84509-1.59332,4.30668,4.30668,0,0,0-3.584-4.066C26.81445,17.1438,29.11108,12.15857,32.64746,10.09766ZM25.34863,25.08984H25.375a1.06009,1.06009,0,0,1,.12769.0094l.0061.00183.01733.00073.0022.00024a3.34452,3.34452,0,0,1,3.17676,3.34473,1.51247,1.51247,0,0,1-.00989.19409l-.00085.00269.00037.00323-.00134.01532a3.355,3.355,0,0,1-6.70215-.12549v-.08984A3.36077,3.36077,0,0,1,25.34863,25.08984ZM29.61157,29.243a60.6222,60.6222,0,0,1,8.62891,1.55481A5.52367,5.52367,0,0,0,39.72632,35.862,71.26923,71.26923,0,0,0,31.9574,48.11139a6.91984,6.91984,0,0,0-3.69495-.28308,84.28123,84.28123,0,0,1-2.303-15.08527A4.33238,4.33238,0,0,0,29.61157,29.243ZM28.02539,48.89063a5.46917,5.46917,0,0,1,1.57813-.22266A5.78619,5.78619,0,0,1,32,49.17822a5.93357,5.93357,0,1,1-3.97461-.2876ZM27.844,61.26886a6.90129,6.90129,0,0,0,1.75952.25507,6.79119,6.79119,0,0,0,1.7771-.25391,99.30177,99.30177,0,0,0,7.77319,16.12109,5.63985,5.63985,0,0,0-2.15674,4.42139c0,.11853.02.2334.02832.3512a82.51014,82.51014,0,0,1-12.47241.559A82.18822,82.18822,0,0,1,27.844,61.26886ZM23.5249,84.507c-.36816-.28217-.74243-.57648-1.12073-.887.37659.0224.7511.04858,1.1283.06531C23.52942,83.95813,23.5249,84.23071,23.5249,84.507Zm1.009.75848c-.00537-.23865-.00952-.47961-.00952-.71466,0-.27753.00488-.55328.00793-.82867.84265.02539,1.68884.043,2.53894.043A83.77982,83.77982,0,0,0,37.184,83.15442a5.57713,5.57713,0,0,0,8.46777,3.39966,40.16274,40.16274,0,0,0,7.18665,6.84149c-.908.06207-1.84009.10443-2.84521.10443A43.17588,43.17588,0,0,1,24.53394,85.26544ZM72.12134,87.436c1.5144-4.83038,1.939-11.16693,1.21252-18.48181a60.116,60.116,0,0,0,6.12732-5.30585,4.26425,4.26425,0,0,0,4.38916.46344,37.23535,37.23535,0,0,1,3.40894,8.34064A43.70065,43.70065,0,0,1,72.12134,87.436ZM87.943,71.24213a38.89225,38.89225,0,0,0-3.24011-7.657,4.32371,4.32371,0,0,0,.43091-6.49231,49.18144,49.18144,0,0,0,6.51855-11.87115c.31274-.824.585-1.61908.82813-2.38434a3.00285,3.00285,0,0,0,.32422.03278c.03931,0,.06616-.0094.10376-.0105a44.082,44.082,0,0,1,.59155,7.134A43.49885,43.49885,0,0,1,87.943,71.24213Zm3.56995-34.22668a3.07508,3.07508,0,0,0-1.75,2.43127c-.1543.00171-.30078.0069-.468.00641a41.18455,41.18455,0,0,1-25.458-8.69238.47.47,0,0,0-.07422-.07178,37.36316,37.36316,0,0,1-5.44678-5.25952,4.316,4.316,0,0,0,.95886-4.87854,50.86252,50.86252,0,0,1,16.56995-5.53741A43.7044,43.7044,0,0,1,91.51294,37.01544ZM29.26257,11.75684c-2.19934,2.746-3.61707,6.9325-4.15979,12.35785a4.33772,4.33772,0,0,0-4.0741,3.96167,35.11538,35.11538,0,0,0-9.66492,1.92035A43.65919,43.65919,0,0,1,29.26257,11.75684ZM10.71484,31.28839a33.36933,33.36933,0,0,1,10.343-2.211A4.3826,4.3826,0,0,0,24.959,32.75714a85.229,85.229,0,0,0,2.33923,15.33813,6.88587,6.88587,0,0,0-.40173,12.85242,83.1658,83.1658,0,0,0-3.343,21.73755c-.80957-.03638-1.61877-.0813-2.41992-.1402a43.552,43.552,0,0,1-10.4187-51.25665Z"></path><path xmlns="http://www.w3.org/2000/svg" d="M29.60352,59.04932a4.35693,4.35693,0,1,0-4.35645-4.35693A4.36239,4.36239,0,0,0,29.60352,59.04932Zm0-7.71387a3.35693,3.35693,0,1,1-3.35645,3.35693A3.36077,3.36077,0,0,1,29.60352,51.33545Z"></path></g><g id="SvgjsG1050" featureKey="PXhRQw-0" transform="matrix(1.6006460522385524,0,0,1.6006460522385524,128.32772863134613,12.396123686568686)" fill="url(#SvgjsLinearGradient1058)"><path d="M0.42 7.76 l10.2 0 l0 2.78 l-3.6 0 l0 9.46 l-3 0 l0 -9.46 l-3.6 0 l0 -2.78 z M14.940000000000001 15 l0 5 l-3 0 l0 -14 l3 0 l0 4.92 c0.7 -0.74 1.58 -1.02 2.58 -1.02 c2.84 0 4.62 2.44 4.62 5.1 l0 5 l-3 0 l0 -5 c0 -1.36 -0.54 -2.32 -2 -2.32 c-1.44 0 -2.2 0.92 -2.2 2.32 z M28.700000000000003 17.32 c1.46 0 2.3 -0.86 2.3 -2.32 s-0.84 -2.32 -2.3 -2.32 s-2.3 0.86 -2.3 2.32 s0.84 2.32 2.3 2.32 z M28.700000000000003 20.1 c-3.08 0 -5.3 -2.04 -5.3 -5.1 c0 -3.16 2.3 -5.1 5.3 -5.1 c3.1 0 5.3 2.04 5.3 5.1 c0 3.14 -2.32 5.1 -5.3 5.1 z M51.42 14.6 l0 5.4 l-3 0 l0 -5.4 c0 -1.14 -0.54 -1.92 -1.74 -1.92 c-1.18 0 -1.76 0.8 -1.76 1.92 l0 5.4 l-3 0 l0 -5.4 c0 -1.14 -0.58 -1.92 -1.78 -1.92 c-1.18 0 -1.72 0.8 -1.72 1.92 l0 5.4 l-3 0 l0 -5.4 c0 -2.9 1.98 -4.7 4.76 -4.7 c1.42 0 2.52 0.66 3.24 1.88 c0.72 -1.22 1.82 -1.88 3.24 -1.88 c2.88 0 4.76 1.9 4.76 4.7 z M56.260000000000005 15 c0 1.48 0.74 2.32 2.24 2.32 c0.42 0 0.8 -0.06 1.1 -0.2 c0.56 -0.22 0.94 -0.64 1.14 -1.22 c0.08 -0.28 0.12 -0.58 0.12 -0.9 s-0.04 -0.62 -0.12 -0.9 c-0.22 -0.62 -0.56 -0.96 -1.14 -1.24 c-0.3 -0.12 -0.68 -0.18 -1.1 -0.18 c-1.5 0 -2.24 0.84 -2.24 2.32 z M56.260000000000005 19 l0 5 l-3 0 l0 -9 c0 -3.2 2.26 -5.1 5.28 -5.1 c3.08 0 5.32 2.02 5.32 5.08 c0 2.84 -2.14 5.12 -4.98 5.12 c-0.58 0 -1.08 -0.1 -1.5 -0.3 c-0.44 -0.18 -0.82 -0.46 -1.12 -0.8 z M64.80000000000001 19.68 l0 -2.8 c1.32 0.4 2.98 0.48 4.34 0.48 c0.54 0 0.96 -0.02 1.26 -0.08 c0.28 -0.04 0.42 -0.14 0.42 -0.28 c0 -0.06 -0.02 -0.1 -0.06 -0.16 c-0.2 -0.2 -0.64 -0.3 -0.9 -0.36 s-0.6 -0.14 -1.02 -0.22 c-0.34 -0.06 -0.74 -0.14 -1.2 -0.24 c-1.56 -0.34 -2.76 -1.22 -2.76 -2.9 c0 -2.48 2.42 -3.22 4.46 -3.22 c1.28 0 2.56 0.18 3.82 0.44 l0 2.82 c-1.26 -0.38 -2.68 -0.48 -4 -0.48 c-0.52 0 -0.88 0.02 -1.1 0.08 s-0.34 0.16 -0.34 0.28 c0 0.18 0.18 0.3 0.52 0.36 c0.34 0.08 0.82 0.18 1.4 0.28 c0.52 0.1 1.02 0.2 1.5 0.32 c1.48 0.38 2.54 1.18 2.54 2.78 c0 2.68 -2.7 3.34 -4.86 3.34 c-1.36 0 -2.7 -0.18 -4.02 -0.44 z M79.82000000000001 17.32 c1.46 0 2.3 -0.86 2.3 -2.32 s-0.84 -2.32 -2.3 -2.32 s-2.3 0.86 -2.3 2.32 s0.84 2.32 2.3 2.32 z M79.82000000000001 20.1 c-3.08 0 -5.3 -2.04 -5.3 -5.1 c0 -3.16 2.3 -5.1 5.3 -5.1 c3.1 0 5.3 2.04 5.3 5.1 c0 3.14 -2.32 5.1 -5.3 5.1 z M96.74000000000001 15 l0 5 l-3 0 l0 -5 c0 -1.38 -0.64 -2.32 -2.1 -2.32 c-1.44 0 -2.1 0.96 -2.1 2.32 l0 5 l-3 0 l0 -5 c0 -3.08 2.12 -5.1 5.1 -5.1 c3.1 0 5.1 2.12 5.1 5.1 z M101.72000000000001 13.26 l0 6.74 l-3 0 l0 -12.24 l3 0 l3.82 6.76 l3.82 -6.76 l3 0 l0 12.24 l-3 0 l0 -6.74 l-2.32 3.98 l-3 0 z M119.24000000000001 17.32 c1.46 0 2.3 -0.86 2.3 -2.32 s-0.84 -2.32 -2.3 -2.32 s-2.3 0.86 -2.3 2.32 s0.84 2.32 2.3 2.32 z M119.24000000000001 20.1 c-3.08 0 -5.3 -2.04 -5.3 -5.1 c0 -3.16 2.3 -5.1 5.3 -5.1 c3.1 0 5.3 2.04 5.3 5.1 c0 3.14 -2.32 5.1 -5.3 5.1 z M130.68 17.32 c1.46 0 2.3 -0.86 2.3 -2.32 s-0.84 -2.32 -2.3 -2.32 s-2.3 0.86 -2.3 2.32 s0.84 2.32 2.3 2.32 z M130.68 20.1 c-3.08 0 -5.3 -2.04 -5.3 -5.1 c0 -3.16 2.3 -5.1 5.3 -5.1 c3.1 0 5.3 2.04 5.3 5.1 c0 3.14 -2.32 5.1 -5.3 5.1 z M140.4 15 l0 5 l-3 0 l0 -4.98 c0 -3.32 2.44 -5.12 5.52 -5.12 c0.1 0 0.24 0 0.38 0.02 s0.3 0.06 0.44 0.08 l0 2.9 c-0.1 -0.02 -0.22 -0.04 -0.36 -0.06 s-0.26 -0.04 -0.36 -0.04 c-0.5 0 -0.9 0.06 -1.24 0.16 c-0.56 0.2 -1.06 0.58 -1.24 1.18 c-0.1 0.26 -0.14 0.56 -0.14 0.86 z M147.44 13.8 c0.3 0.1 0.64 0.18 1 0.22 c0.36 0.06 0.7 0.08 1.02 0.08 c0.4 0 1.42 -0.08 1.42 -0.66 c0 -0.62 -0.88 -0.64 -1.32 -0.64 c-0.88 0 -1.64 0.2 -2.12 1 z M153.10000000000002 16.88 l0 2.8 c-1.12 0.26 -2.24 0.44 -3.4 0.44 c-3.18 0 -5.54 -1.86 -5.54 -5.08 c0 -3.18 2.28 -5.14 5.3 -5.14 c2.06 0 4.44 0.98 4.44 3.32 c0 2.32 -2.52 3.18 -4.46 3.18 c-0.74 0 -1.48 -0.2 -2.16 -0.48 c0.4 1.12 1.6 1.3 2.64 1.3 c0.54 0 1.08 -0.02 1.62 -0.1 c0.5 -0.04 1.08 -0.1 1.56 -0.24 z"></path></g><g id="SvgjsG1051" featureKey="mlRtrp-0" transform="matrix(1.4745375671084635,0,0,1.4745375671084635,131.22924336520444,51.79896607376861)" fill="#137dc5"><path d="M10.742 6.24 c1.3151 0 2.5375 0.11229 3.667 0.33689 s2.1663 0.5127 3.1104 0.86426 l0 3.2813 c-0.37109 -0.20833 -0.78938 -0.41016 -1.2549 -0.60547 s-0.97168 -0.36784 -1.5186 -0.51758 s-1.1328 -0.27018 -1.7578 -0.36132 s-1.2825 -0.13672 -1.9727 -0.13672 c-0.85938 0 -1.6081 0.061846 -2.2461 0.18555 s-1.1849 0.28972 -1.6406 0.49805 s-0.83008 0.45084 -1.123 0.72753 s-0.52409 0.57129 -0.69336 0.88379 s-0.28646 0.63151 -0.35156 0.95703 s-0.097656 0.64127 -0.097656 0.94726 c0 0.26692 0.027666 0.55664 0.083008 0.86914 s0.15951 0.625 0.31251 0.9375 s0.36621 0.61198 0.63965 0.89844 s0.62988 0.54036 1.0693 0.76172 s0.96843 0.39877 1.5869 0.53224 s1.3542 0.2002 2.207 0.2002 c0.42969 0 0.80403 -0.013018 1.123 -0.039063 s0.61035 -0.061855 0.87402 -0.10743 s0.51106 -0.10092 0.74219 -0.16603 s0.47038 -0.13347 0.71777 -0.20508 l0 -1.6211 l-4.0625 0 l0 -2.9395 l7.6855 0 l0 6.8555 c-0.48177 0.16276 -1.0205 0.31088 -1.6162 0.44435 s-1.2109 0.2474 -1.8457 0.34181 s-1.2712 0.16765 -1.9092 0.21973 s-1.2402 0.078125 -1.8066 0.078125 c-0.87891 0 -1.722 -0.058594 -2.5293 -0.17578 s-1.5608 -0.29785 -2.2607 -0.54199 s-1.3379 -0.55501 -1.9141 -0.93262 s-1.0677 -0.82683 -1.4746 -1.3477 s-0.72266 -1.1182 -0.94727 -1.792 s-0.33691 -1.4307 -0.33691 -2.2705 c0 -0.83333 0.11719 -1.5886 0.35156 -2.2656 s0.56152 -1.2761 0.98145 -1.7969 s0.92448 -0.97005 1.5137 -1.3477 s1.237 -0.68848 1.9434 -0.93262 s1.4616 -0.4248 2.2656 -0.54199 s1.6325 -0.17578 2.4854 -0.17578 z M42.113325 20 l-3.623 0 l0 -13.418 l9.082 0 c0.97656 0 1.805 0.10091 2.4854 0.30273 s1.2337 0.48828 1.6602 0.85938 s0.73568 0.81868 0.92774 1.3428 s0.28809 1.1084 0.28809 1.7529 c0 0.56641 -0.079756 1.0612 -0.23926 1.4844 s-0.37435 0.78613 -0.64453 1.0889 s-0.58432 0.55827 -0.94239 0.7666 s-0.73568 0.38086 -1.1328 0.51758 l4.3945 5.3027 l-4.2383 0 l-4.0625 -4.9414 l-3.9551 0 l0 4.9414 z M49.271625 10.8203 c0 -0.26042 -0.03418 -0.48174 -0.10254 -0.66403 s-0.18718 -0.33041 -0.35645 -0.44435 s-0.39551 -0.19694 -0.67871 -0.24902 s-0.6364 -0.078125 -1.0596 -0.078125 l-4.9609 0 l0 2.8711 l4.9609 0 c0.42317 0 0.77637 -0.026045 1.0596 -0.078125 s0.50944 -0.13509 0.67871 -0.24902 s0.28809 -0.26205 0.35645 -0.44435 s0.10254 -0.40365 0.10254 -0.66407 z M90.984484375 13.300799999999999 c0 1.1523 -0.21159 2.1696 -0.63477 3.0518 s-1.0286 1.6194 -1.8164 2.2119 s-1.7432 1.04 -2.8662 1.3428 s-2.3845 0.4541 -3.7842 0.4541 s-2.6644 -0.15137 -3.7939 -0.4541 s-2.0915 -0.75032 -2.8857 -1.3428 s-1.4063 -1.3298 -1.8359 -2.2119 s-0.64453 -1.8994 -0.64453 -3.0518 s0.21484 -2.1696 0.64453 -3.0518 s1.0417 -1.6194 1.8359 -2.2119 s1.7562 -1.04 2.8857 -1.3428 s2.3942 -0.4541 3.7939 -0.4541 s2.6611 0.15137 3.7842 0.4541 s2.0784 0.75032 2.8662 1.3428 s1.3933 1.3298 1.8164 2.2119 s0.63477 1.8994 0.63477 3.0518 z M87.322484375 13.300799999999999 c0 -0.5013 -0.079756 -1.001 -0.23926 -1.499 s-0.44271 -0.94563 -0.84961 -1.3428 s-0.96191 -0.7194 -1.665 -0.9668 s-1.5983 -0.37109 -2.6855 -0.37109 c-0.72917 0 -1.3704 0.056963 -1.9238 0.1709 s-1.0319 0.27182 -1.4355 0.47364 s-0.74219 0.43783 -1.0156 0.70802 s-0.49153 0.5599 -0.6543 0.86915 s-0.27832 0.63151 -0.34668 0.9668 s-0.10254 0.66568 -0.10254 0.99121 c0 0.33203 0.03418 0.66731 0.10254 1.0059 s0.18392 0.66244 0.34668 0.97169 s0.38086 0.59733 0.6543 0.86426 s0.61198 0.49967 1.0156 0.69823 s0.88216 0.35481 1.4355 0.46875 s1.1946 0.1709 1.9238 0.1709 c1.0872 0 1.9824 -0.1237 2.6855 -0.37109 s1.2581 -0.56966 1.665 -0.9668 s0.69011 -0.84473 0.84961 -1.3428 s0.23926 -0.99775 0.23926 -1.499 z M126.8765 15.4785 c0 0.67058 -0.16599 1.3021 -0.49802 1.8945 s-0.83008 1.1101 -1.4941 1.5527 s-1.4925 0.79264 -2.4854 1.0498 s-2.1533 0.38574 -3.4814 0.38574 s-2.4919 -0.12858 -3.4912 -0.38574 s-1.8311 -0.60709 -2.4951 -1.0498 s-1.1621 -0.96028 -1.4941 -1.5527 s-0.49805 -1.2239 -0.49805 -1.8945 l0 -8.8965 l3.6133 0 l0 7.5977 c0 0.44922 0.056963 0.87402 0.1709 1.2744 s0.32878 0.75032 0.64453 1.0498 s0.75846 0.53711 1.3281 0.71289 s1.3103 0.26367 2.2217 0.26367 c0.90495 0 1.6406 -0.087891 2.207 -0.26367 s1.0075 -0.41341 1.3232 -0.71289 s0.52896 -0.64941 0.63964 -1.0498 s0.16602 -0.8252 0.16602 -1.2744 l0 -7.5977 l3.623 0 l0 8.8965 l0 0 z M162.808859375 11.1621 c0 0.67058 -0.097656 1.2874 -0.29297 1.8506 s-0.50944 1.0481 -0.94238 1.4551 s-0.99443 0.72429 -1.6846 0.95215 s-1.53 0.3418 -2.5195 0.3418 l-6.0156 0 l0 4.2383 l-3.623 0 l0 -13.418 l9.6387 0 c0.98955 0 1.8294 0.1123 2.5195 0.33691 s1.2517 0.54036 1.6846 0.94727 s0.74707 0.8903 0.94238 1.4502 s0.29297 1.1751 0.29297 1.8457 z M159.146859375 11.2207 c0 -0.3125 -0.043945 -0.58104 -0.13184 -0.80565 s-0.23274 -0.40853 -0.43457 -0.55176 s-0.4655 -0.24902 -0.79102 -0.31738 s-0.72591 -0.10254 -1.2012 -0.10254 l-5.2344 0 l0 3.457 l5.2344 0 c0.47526 0 0.87565 -0.027666 1.2012 -0.083008 s0.58919 -0.14975 0.79102 -0.28321 s0.34668 -0.30762 0.43457 -0.52246 s0.13184 -0.47852 0.13184 -0.79102 z"></path></g>
			</g>
		</svg>
	